<?xml version="1.0" encoding="iso-8859-1"?>
<!-- Generator: Adobe Illustrator 19.0.0, SVG Export Plug-In . SVG Version: 6.00 Build 0)  -->
<svg version="1.1" id="Layer_1" xmlns="http://www.w3.org/2000/svg" xmlns:xlink="http://www.w3.org/1999/xlink" x="0px" y="0px"
	 viewBox="0 0 473.931 473.931" style="enable-background:new 0 0 473.931 473.931;" xml:space="preserve">
<circle style="fill:#4ABC96;" cx="236.966" cy="236.966" r="236.966"/>
<g>
	<rect x="197.58" y="119.849" style="fill:#F1EDCD;" width="77.252" height="12.539"/>
	<rect x="177.838" y="150.456" style="fill:#F1EDCD;" width="116.743" height="12.535"/>
	<rect x="167.964" y="182.508" style="fill:#F1EDCD;" width="136.481" height="12.531"/>
	<rect x="167.964" y="215.926" style="fill:#F1EDCD;" width="136.481" height="12.542"/>
	<rect x="173.281" y="247.966" style="fill:#F1EDCD;" width="125.813" height="12.531"/>
	<rect x="188.585" y="278.611" style="fill:#F1EDCD;" width="95.25" height="12.542"/>
	<rect x="210.773" y="303.681" style="fill:#F1EDCD;" width="50.888" height="12.539"/>
	<rect x="205.572" y="363.063" style="fill:#F1EDCD;" width="61.279" height="12.539"/>
	<rect x="187.687" y="392.773" style="fill:#F1EDCD;" width="97.02" height="12.539"/>
	<rect x="201.868" y="65.993" style="fill:#F1EDCD;" width="71.243" height="12.527"/>
</g>
<path style="fill:#49A0AE;" d="M295.393,421.345h-12.539c0-24.183-24.471-49.814-50.375-76.942
	c-36.239-37.953-77.305-80.96-73.481-137.947c2.754-41.043,23.012-78.379,58.577-107.972c26.645-22.17,52.186-32.127,53.26-32.538
	l4.498,11.7l-2.249-5.848l2.256,5.848c-0.247,0.097-24.973,9.773-50.046,30.727c-33.145,27.689-51.247,60.972-53.795,98.928
	c-3.457,51.483,35.592,92.369,70.038,128.447C269.231,364.747,295.393,392.14,295.393,421.345z"/>
<path style="fill:#E84849;" d="M189.419,421.345H176.88c0-29.204,26.159-56.598,53.851-85.6
	c34.447-36.082,73.496-76.968,70.038-128.447c-6.114-91.048-102.857-129.282-103.834-129.652l4.498-11.7
	c1.074,0.412,26.615,10.368,53.253,32.538c35.573,29.594,55.831,66.933,58.585,107.972c3.824,56.987-37.242,99.999-73.477,137.947
	C213.89,371.531,189.419,397.162,189.419,421.345z"/>
<g>
</g>
<g>
</g>
<g>
</g>
<g>
</g>
<g>
</g>
<g>
</g>
<g>
</g>
<g>
</g>
<g>
</g>
<g>
</g>
<g>
</g>
<g>
</g>
<g>
</g>
<g>
</g>
<g>
</g>
</svg>
